<?xml version="1.0" standalone="no"?>
<!DOCTYPE svg PUBLIC "-//W3C//DTD SVG 20010904//EN"
 "http://www.w3.org/TR/2001/REC-SVG-20010904/DTD/svg10.dtd">
<svg version="1.0" xmlns="http://www.w3.org/2000/svg"
 width="599.000000pt" height="599.000000pt" viewBox="0 0 599.000000 599.000000"
 preserveAspectRatio="xMidYMid meet">
<metadata>
Created by potrace 1.13, written by Peter Selinger 2001-2015
</metadata>
<g transform="translate(0.000000,599.000000) scale(0.100000,-0.100000)"
fill="#000000" stroke="none">
<path d="M0 2995 l0 -2995 2995 0 2995 0 0 2995 0 2995 -2995 0 -2995 0 0
-2995z m4320 2755 l0 -80 80 0 80 0 0 80 0 80 320 0 320 0 0 -80 0 -80 320 0
320 0 0 -80 0 -80 35 0 35 0 0 -80 0 -80 -115 0 -115 0 0 -80 0 -80 80 0 80 0
0 -80 0 -80 35 0 35 0 0 -720 0 -720 -355 0 -355 0 0 -240 0 -240 -120 0 -120
0 0 80 0 80 -40 0 -40 0 0 160 0 160 -80 0 -80 0 0 373 c0 377 -6 445 -38 480
-39 44 -70 50 -254 55 l-177 4 -3 227 c-3 246 -7 265 -61 305 -28 21 -39 21
-548 24 l-519 3 0 144 0 145 -80 0 -80 0 0 160 0 160 80 0 80 0 0 80 0 80 640
0 640 0 0 -80z m-2080 -160 l0 -80 -160 0 -160 0 0 -80 0 -80 -320 0 -320 0 0
-160 0 -160 80 0 80 0 0 -240 0 -240 -80 0 -80 0 0 -80 0 -80 -240 0 -240 0 0
160 0 160 -160 0 -160 0 0 -560 0 -560 -160 0 -160 0 0 800 0 800 80 0 80 0 0
80 0 80 -80 0 -80 0 0 160 0 160 1040 0 1040 0 0 -80z m1780 -965 l0 -285 235
0 235 0 0 -890 0 -890 -235 0 -235 0 -1 -267 c0 -148 -3 -263 -5 -257 -5 11
-126 10 -145 -1 -5 -4 -16 -1 -24 5 -12 10 -15 10 -15 0 0 -7 -8 -10 -20 -7
-11 3 -20 1 -20 -5 0 -5 -7 -2 -16 6 -16 16 -34 13 -34 -5 0 -6 4 -8 8 -5 4 2
19 -5 32 -15 22 -18 22 -19 3 -10 -26 13 -36 14 -29 3 2 -4 -4 -9 -15 -9 -11
-1 -17 2 -14 8 4 5 0 9 -7 9 -9 0 -9 3 2 10 12 7 12 12 2 22 -9 9 -12 9 -12 0
0 -7 -5 -12 -11 -12 -5 0 -7 5 -3 12 5 8 2 9 -12 4 -40 -17 -57 -19 -50 -7 5
8 1 8 -19 -1 -17 -8 -29 -8 -33 -2 -8 11 -117 13 -127 2 -4 -4 -17 -3 -28 3
-15 9 -18 8 -11 -3 6 -11 5 -11 -9 1 -15 12 -17 11 -17 -4 0 -13 -3 -15 -13
-6 -19 15 -59 20 -79 9 -10 -5 -18 -5 -18 0 0 13 -44 9 -59 -5 -7 -8 -16 -11
-19 -8 -4 3 0 10 8 15 12 8 12 10 1 10 -8 0 -20 -8 -28 -17 -8 -10 -11 -12 -7
-4 5 11 3 13 -9 8 -9 -3 -19 -2 -22 4 -4 5 -13 3 -21 -6 -9 -8 -12 -20 -8 -26
4 -7 1 -10 -7 -7 -8 3 -19 14 -24 25 -9 18 -12 18 -24 6 -12 -13 -12 -16 0
-24 7 -4 10 -11 6 -16 -11 -10 -28 18 -22 37 3 10 -2 16 -15 17 -13 1 -18 -2
-13 -10 4 -8 1 -8 -9 1 -13 10 -18 10 -24 1 -5 -9 -10 -7 -15 7 -7 18 -8 18
-8 0 -1 -16 -3 -17 -17 -5 -19 15 -47 21 -38 8 3 -5 10 -6 16 -3 6 4 8 2 5 -4
-7 -10 -24 -11 -42 -1 -19 10 -40 4 -43 -14 -2 -10 0 -16 5 -15 4 2 9 -1 10
-7 3 -12 -27 -14 -43 -2 -7 4 -10 15 -7 25 3 12 -3 17 -19 18 -17 1 -24 -4
-25 -18 -2 -15 1 -17 11 -9 9 8 13 7 13 -2 0 -7 -11 -14 -24 -15 -15 -1 -22 2
-18 9 10 16 -13 37 -40 37 -24 -1 -24 -1 -8 -17 10 -9 19 -23 21 -31 2 -8 -12
2 -30 23 -23 25 -37 34 -44 27 -5 -5 -29 -12 -53 -14 -44 -4 -59 -11 -48 -22
4 -4 14 -1 23 7 15 12 17 12 12 -1 -4 -14 -43 -22 -61 -12 -5 2 -1 12 8 22 12
13 13 18 3 16 -26 -3 -40 -18 -35 -37 4 -15 0 -19 -19 -19 -15 0 -24 6 -24 15
0 8 5 15 11 15 5 0 7 -5 3 -12 -5 -7 -3 -8 6 -3 10 6 9 11 -5 22 -27 19 -35
16 -32 -9 1 -16 -3 -22 -13 -19 -36 8 -60 8 -60 -1 0 -5 -10 -6 -22 -2 -13 4
-28 7 -35 7 -7 0 -15 7 -17 14 -3 8 -1 11 4 8 6 -3 10 -1 10 4 0 6 5 11 11 11
5 0 7 -4 4 -10 -3 -5 -3 -10 2 -11 45 -5 63 -4 63 4 0 5 6 5 13 -2 14 -11 27
-5 27 13 0 6 -11 11 -25 11 -14 0 -25 -4 -25 -9 0 -5 -7 -3 -15 4 -12 10 -15
10 -15 0 0 -9 -4 -9 -12 -3 -7 6 -31 9 -53 8 -22 -2 -48 1 -57 6 -10 6 -19 5
-23 -1 -8 -13 -65 -10 -84 4 -12 9 -13 7 -8 -8 6 -16 5 -17 -8 -6 -12 10 -15
10 -15 -1 0 -9 -3 -10 -8 -4 -10 14 -52 17 -52 4 0 -6 -7 -9 -15 -5 -8 3 -15
1 -15 -4 0 -6 -8 -10 -17 -9 -11 0 -13 3 -5 6 16 6 16 24 0 21 -10 -2 -14 290
-16 1430 l-2 1432 1035 0 1035 0 0 -285z m-2260 -315 c0 -64 3 -80 15 -80 12
0 15 -16 15 -80 0 -64 -3 -80 -15 -80 -12 0 -15 16 -15 80 l0 80 -80 0 -80 0
0 80 0 80 80 0 80 0 0 -80z m4000 -1440 l0 -80 35 0 35 0 0 -560 0 -560 -1395
0 c-1233 0 -1395 2 -1395 15 0 12 15 15 79 15 55 0 81 4 84 13 3 9 76 12 320
12 288 0 317 1 317 16 0 13 15 19 68 25 37 5 78 8 91 7 14 -1 47 10 75 25 l49
27 -384 5 -384 5 360 5 c478 7 448 -12 453 292 l3 197 32 20 c49 30 178 61
254 61 77 0 125 19 157 63 19 25 21 46 24 173 l4 144 24 0 c23 0 24 2 24 80
l0 80 535 0 535 0 0 -80z m-5280 -560 l0 -480 -160 0 -160 0 0 480 0 480 160
0 160 0 0 -480z m1320 -1200 l0 -240 -180 0 -180 0 0 80 0 80 -80 0 -80 0 0
-80 0 -80 -160 0 -160 0 0 80 0 80 -80 0 -80 0 0 160 0 160 500 0 500 0 0
-240z m1080 0 l0 -240 -52 0 -53 0 -3 240 -4 240 56 0 56 0 0 -240z m2240
-915 l0 -35 -1040 0 -1040 0 0 35 0 35 1040 0 1040 0 0 -35z"/>
<path d="M2620 3450 l0 -790 605 0 605 0 0 790 0 790 -605 0 -605 0 0 -790z
m855 630 l192 0 5 -144 c3 -80 3 -190 0 -245 l-5 -101 -313 0 -314 0 0 252 0
251 122 -6 c66 -4 208 -7 313 -7z m195 -1202 l0 -71 -112 6 c-62 4 -204 7
-315 7 l-203 0 0 65 0 65 315 0 315 0 0 -72z"/>
</g>
</svg>
